<?xml version="1.0" encoding="utf-8"?>
<!-- Generator: Adobe Adobe Illustrator 24.2.0, SVG Export Plug-In . SVG Version: 6.00 Build 0)  -->
<svg version="1.1" id="Layer_2" xmlns="http://www.w3.org/2000/svg" xmlns:xlink="http://www.w3.org/1999/xlink" x="0px" y="0px"
	 width="45px" height="45px" viewBox="0 0 45 45" style="enable-background:new 0 0 45 45;" xml:space="preserve">
<g>
	<g>
		<path d="M17.57,27.02c0.95-1.25,2.08-2.36,3.1-3.56c1-1.16,1.95-2.36,2.97-3.5c0.98-1.1,1.85-2.3,2.85-3.38
			c0.5-0.54,1.02-1.09,1.47-1.66c0.38-0.47,0.83-1.05,1.3-1.42c-0.26,0.2-0.61,0.29-0.87,0.5c-0.47,0.38-0.92,0.95-1.3,1.42
			c-0.43,0.54-0.93,1.06-1.4,1.58c-1.02,1.12-1.92,2.34-2.92,3.47c-0.99,1.11-1.92,2.28-2.89,3.41c-1.05,1.22-2.2,2.36-3.18,3.65
			C16.88,27.28,17.38,27.27,17.57,27.02L17.57,27.02z"/>
	</g>
</g>
<g>
	<g>
		<path d="M28.48,13.9c0.62-0.03,1.2-0.21,1.83-0.22c0.59-0.01,1.08,0.18,1.61,0.4c1.2,0.5,2.36,1.11,3.52,1.69
			c1.09,0.54,2.12,1.08,3.3,1.39c0.56,0.14,1.09,0.42,1.65,0.54c0.22,0.04,0.44,0.07,0.66,0.11c0.26,0.05,0.5,0.17,0.76,0.21
			c0.29-0.17,0.58-0.33,0.87-0.5c-0.03,0-0.05,0-0.08,0c-0.29,0-0.58,0.5-0.87,0.5c0.03,0,0.05,0,0.08,0c0.27,0,0.61-0.54,0.87-0.5
			c-0.24-0.03-0.45-0.15-0.69-0.2c-0.21-0.05-0.43-0.06-0.65-0.1c-0.56-0.1-1.1-0.38-1.65-0.53c-1.21-0.33-2.26-0.85-3.38-1.41
			c-1.13-0.56-2.26-1.15-3.43-1.64c-0.52-0.22-1.01-0.43-1.59-0.44c-0.67-0.01-1.29,0.19-1.94,0.22
			C29.05,13.41,28.77,13.89,28.48,13.9L28.48,13.9z"/>
	</g>
</g>
<g>
	<g>
		<path d="M16.37,9.8c1.31,0.34,2.61,0.68,3.96,0.89c0.6,0.09,1.21,0.1,1.82,0.1c0.7,0,1.32-0.23,2.01-0.05
			c0.61,0.16,1.29,0.43,1.82,0.76c0.51,0.31,0.87,0.71,1.29,1.12c0.38,0.37,0.74,0.77,1.16,1.11c0.44,0.35,0.98,0.29,1.51,0.36
			c0.27,0.03,0.61-0.53,0.87-0.5c-0.51-0.06-1.04-0.01-1.47-0.31c-0.43-0.31-0.77-0.74-1.14-1.1c-0.92-0.91-1.89-1.6-3.18-1.93
			c-0.68-0.17-1.25,0.05-1.92,0.05c-0.61,0-1.22-0.01-1.83-0.1c-1.37-0.2-2.7-0.54-4.04-0.89C17,9.24,16.59,9.86,16.37,9.8
			L16.37,9.8z"/>
	</g>
</g>
<g>
	<g>
		<path d="M16.18,9.8c-0.61,0.56-1.1,1.23-1.61,1.88c-0.47,0.59-0.97,1.11-1.52,1.62c-1.22,1.12-2.49,2.15-3.75,3.23
			c-1.22,1.05-2.2,2.33-3.4,3.41c-0.54,0.49-1.18,0.98-1.65,1.55c-0.14,0.17-1.04,1.43-0.86,1.56c0.12,0.09,0.75-0.58,0.87-0.5
			c-0.19-0.13,0.69-1.34,0.81-1.49c0.45-0.56,1.06-1.06,1.6-1.54c1.23-1.1,2.24-2.42,3.48-3.49c1.22-1.05,2.47-2.07,3.66-3.15
			c0.56-0.51,1.07-1.02,1.54-1.61c0.53-0.68,1.04-1.38,1.68-1.96C16.81,9.52,16.42,9.58,16.18,9.8L16.18,9.8z"/>
	</g>
</g>
<g>
	<g>
		<path d="M3.69,22.9c1.22,0.2,2.43,0.18,3.64,0.48c1.24,0.31,2.42,0.79,3.65,1.15c1.12,0.32,2.28,0.46,3.37,0.89
			c1.01,0.39,2.12,1.16,2.45,2.24c-0.02-0.07,0.89-0.42,0.87-0.5c-0.32-1.04-1.38-1.8-2.35-2.2c-1.11-0.46-2.32-0.6-3.47-0.93
			c-1.19-0.34-2.35-0.81-3.55-1.12c-1.24-0.32-2.48-0.3-3.74-0.51C4.3,22.36,3.94,22.94,3.69,22.9L3.69,22.9z"/>
	</g>
</g>
<g>
	<g>
		<path d="M16.89,27.57c1.26,0.13,2.55,0.11,3.8,0.36c1.28,0.25,2.53,0.81,3.7,1.37c1.17,0.56,2.26,1.34,3.38,2
			c0.49,0.29,0.97,0.6,1.46,0.9c0.37,0.23,1.03,0.43,1.28,0.8c0.01,0.02,0.86-0.51,0.87-0.5c-0.23-0.35-0.85-0.55-1.2-0.75
			c-0.49-0.28-0.97-0.61-1.46-0.9c-1.14-0.68-2.26-1.48-3.46-2.05c-1.16-0.55-2.36-1.05-3.6-1.35c-1.27-0.3-2.61-0.24-3.9-0.37
			C17.48,27.04,17.15,27.6,16.89,27.57L16.89,27.57z"/>
	</g>
</g>
<g>
	<g>
		<path d="M41.21,17.91c0.29,0,0.58-0.5,0.87-0.5C41.78,17.41,41.49,17.91,41.21,17.91L41.21,17.91z"/>
	</g>
</g>
<g>
	<g>
		<path d="M41.49,18.19c-0.52,0.67-1.03,1.35-1.61,1.97c-0.57,0.61-0.93,1.17-1.28,1.92c-0.69,1.45-1.88,2.48-2.8,3.76
			c-0.91,1.27-1.87,2.51-2.83,3.75c-0.51,0.66-0.95,1.37-1.45,2.03c-0.26,0.36-1.1,1.03-1.05,1.51c-0.01-0.13,0.88-0.35,0.87-0.5
			c-0.04-0.46,0.74-1.08,1-1.43c0.52-0.69,0.98-1.43,1.5-2.11c0.96-1.24,1.92-2.47,2.83-3.75c0.92-1.28,2.11-2.32,2.8-3.76
			c0.34-0.72,0.67-1.27,1.22-1.85c0.61-0.64,1.14-1.35,1.68-2.04C42.17,17.93,41.68,17.94,41.49,18.19L41.49,18.19z"/>
	</g>
</g>
<g>
	<g>
		<path d="M41.81,18c0.01,0.16,0.02,0.33,0.09,0.47c0.09,0.16,0.22,0.29,0.32,0.45c0.06,0.11,0.12,0.23,0.19,0.33
			c0.07,0.11,0.15,0.21,0.23,0.31c0.08,0.1,0.14,0.21,0.2,0.32c0.06,0.11,0.14,0.21,0.15,0.33c0,0,0.15-0.08,0.13-0.07
			c0.1-0.06,0.2-0.12,0.31-0.18c0.1-0.06,0.2-0.12,0.31-0.18c0.02-0.01,0.13-0.06,0.13-0.08c-0.01-0.12-0.08-0.22-0.14-0.32
			c-0.06-0.11-0.12-0.22-0.2-0.32c-0.08-0.1-0.16-0.2-0.23-0.31c-0.07-0.11-0.13-0.23-0.2-0.35c-0.09-0.16-0.22-0.29-0.31-0.45
			c-0.08-0.14-0.08-0.31-0.1-0.47c0,0-0.15,0.08-0.13,0.07c-0.1,0.06-0.2,0.12-0.31,0.18c-0.1,0.06-0.2,0.12-0.31,0.18
			C41.92,17.94,41.81,17.99,41.81,18L41.81,18z"/>
	</g>
</g>
<g>
	<g>
		<path d="M43.56,20.41c-1.02,1.18-1.79,2.53-2.66,3.81c-0.46,0.67-0.91,1.34-1.36,2.01c-0.46,0.7-0.85,1.45-1.39,2.09
			c-1.04,1.24-2.31,2.24-3.39,3.43c-1.03,1.13-2.01,2.34-2.88,3.6c0.17-0.25,0.69-0.25,0.87-0.5c0.85-1.23,1.81-2.4,2.81-3.52
			c1.09-1.23,2.4-2.24,3.46-3.51c0.52-0.62,0.88-1.33,1.33-2c0.45-0.67,0.91-1.34,1.36-2.01c0.89-1.31,1.69-2.7,2.72-3.9
			C44.23,20.14,43.77,20.17,43.56,20.41L43.56,20.41z"/>
	</g>
</g>
<g>
	<g>
		<path d="M31.33,32.63c-0.01-0.02-0.02-0.03-0.03-0.05c-0.29,0.17-0.58,0.33-0.87,0.5c0.08,0.03,0.14,0.1,0.2,0.17
			c0.07,0.08,0.15,0.15,0.23,0.23c0.16,0.16,0.32,0.31,0.48,0.46c0.16,0.14,0.31,0.29,0.46,0.45c0.14,0.15,0.3,0.3,0.41,0.48
			c0.01,0.01,0.87-0.5,0.87-0.5c-0.1-0.17-0.26-0.32-0.4-0.47c-0.15-0.16-0.31-0.31-0.47-0.46c-0.16-0.15-0.32-0.3-0.47-0.45
			c-0.08-0.08-0.15-0.16-0.23-0.24c-0.06-0.07-0.12-0.14-0.21-0.17c-0.01,0-0.14,0.08-0.13,0.07c-0.1,0.06-0.2,0.12-0.31,0.18
			c-0.03,0.02-0.43,0.26-0.43,0.25c0.01,0.02,0.02,0.03,0.03,0.05c0.01,0.01,0.4-0.23,0.44-0.25
			C30.93,32.87,31.33,32.63,31.33,32.63L31.33,32.63z"/>
	</g>
</g>
<g>
	<g>
		<path d="M32.74,34.85c-1.39-0.49-2.81-0.93-4.19-1.45c-1.34-0.51-2.64-1.15-3.97-1.7c-1.31-0.54-2.65-1.02-3.94-1.59
			c-1.16-0.52-2.38-0.84-3.53-1.37c-0.16-0.07-0.73,0.59-0.87,0.5c0.25,0.16,0.61-0.13,0.82-0.25c0.3-0.17,0.67-0.31,0.4-0.73
			c-0.24-0.37-1.16-0.52-1.55-0.43c-0.24,0.05-0.73,0.36-0.91,0.53c-0.74,0.67,1.1,1.43,1.69,1.23c0.53-0.18,1.45-0.67,0.83-1.26
			c-0.61-0.59-1.36-0.2-1.93,0.23c-0.93,0.71,1.06,1.59,1.72,1.3c0.21-0.09,0.65-0.28,0.8-0.46c0.38-0.46-0.35-1.13-0.77-1.29
			c-0.4-0.16-0.83-0.21-1.22-0.01c-0.24,0.13-0.79,0.34-0.84,0.66c-0.08,0.55,0.8,0.83,1.2,0.89c0.4,0.06,0.6-0.07,0.94-0.26
			c0.26-0.15,0.66-0.26,0.6-0.63c-0.06-0.39-0.76-0.89-1.12-0.99c-0.37-0.11-0.71,0.16-1.01,0.34c-0.37,0.22-0.61,0.41-0.31,0.85
			c0.27,0.41,0.94,0.85,1.41,1.01c0.39,0.13,0.65-0.1,0.98-0.29c0.37-0.22,0.6-0.41,0.29-0.84c-0.3-0.41-0.8-0.89-1.34-0.92
			c-0.34-0.02-0.64,0.22-0.93,0.38c-0.35,0.2-0.64,0.39-0.44,0.86c0.22,0.5,0.98,0.89,1.51,0.9c0.32,0,0.67-0.26,0.93-0.43
			c0.86-0.55-0.55-1.68-1.26-1.46c-0.29,0.09-0.68,0.31-0.91,0.51c-0.49,0.43,0.06,0.99,0.51,1.2c0.36,0.17,0.65,0.16,0.99-0.02
			c0.31-0.17,0.82-0.34,0.8-0.75c-0.04-0.6-0.74-1.05-1.27-1.19c-0.43-0.11-0.66,0.04-1.01,0.24c-0.38,0.22-0.7,0.33-0.41,0.8
			c0.12,0.2,0.15,0.29,0.36,0.26c0.19-0.03,0.44-0.25,0.6-0.34c-0.18,0.1-0.37,0.21-0.55,0.31c0.19-0.07,0.37,0,0.57-0.01
			c0.09,0,0.87-0.46,0.87-0.5c-0.05-0.32-0.95-0.42-1.2-0.48c-0.77-0.18-1.54-0.37-2.3-0.57c-0.71-0.18-1.35-0.51-2.04-0.72
			c-0.78-0.23-1.52-0.53-2.29-0.79c-1.35-0.44-2.74-1-4.13-1.3c-0.79-0.17-1.56-0.38-2.35-0.55c-0.66-0.15-1.33-0.29-1.95-0.53
			c-0.2-0.08-0.68,0.57-0.87,0.5c0.62,0.24,1.29,0.38,1.95,0.53c0.75,0.17,1.5,0.39,2.25,0.54c1.42,0.28,2.84,0.87,4.22,1.32
			c1.42,0.46,2.79,1.08,4.22,1.48c0.79,0.22,1.61,0.41,2.41,0.6c0.24,0.06,1.15,0.17,1.2,0.48c0.29-0.17,0.58-0.33,0.87-0.5
			c-0.23,0.01-0.41-0.04-0.63,0.04c-0.21,0.08-0.41,0.23-0.6,0.34c0.18-0.1,0.37-0.21,0.55-0.31c-0.29-0.03-0.58-0.61-0.33-0.83
			c-0.29,0.17-0.58,0.33-0.87,0.5c0.68-0.25,2.48,0.96,1.7,1.57c0.29-0.17,0.58-0.33,0.87-0.5c-0.6,0.21-2.04-0.75-1.29-1.29
			c-0.29,0.17-0.58,0.33-0.87,0.5c0.58-0.2,2.13,0.76,1.48,1.34c0.29-0.17,0.58-0.33,0.87-0.5c-0.65,0.2-2.47-0.85-1.63-1.53
			c-0.29,0.17-0.58,0.33-0.87,0.5c0.65-0.27,2.36,0.88,1.74,1.5c0.29-0.17,0.58-0.33,0.87-0.5c-0.54,0.14-2.54-1.1-1.84-1.7
			c-0.29,0.17-0.58,0.33-0.87,0.5c0.49-0.16,1.99,0.67,1.5,1.29c0.04-0.03,0.08-0.05,0.13-0.08c-0.03,0.02-0.06,0.04-0.09,0.05
			c0.25-0.14,0.49-0.28,0.74-0.42c-0.54,0.15-2.23-0.42-1.55-1.13c-0.29,0.17-0.58,0.33-0.87,0.5c0.42-0.13,1.02,0.04,1.37,0.29
			c0.27,0.2,0.79,0.77,0.45,1.1c0.29-0.17,0.58-0.33,0.87-0.5c-0.63,0.27-2.57-0.67-1.67-1.32c-0.29,0.17-0.58,0.33-0.87,0.5
			c0.51-0.21,1.83,0.53,1.16,1c0.29-0.17,0.58-0.33,0.87-0.5c-0.63,0.24-2.2-0.31-1.83-1.16c-0.04,0.03-0.08,0.05-0.13,0.08
			c0.05-0.03,0.09-0.05,0.14-0.08c-0.25,0.14-0.49,0.28-0.74,0.42c0.39-0.01,2.06,0.14,1.59,0.91c0.29-0.17,0.58-0.33,0.87-0.5
			c-0.14,0.06-0.26,0.09-0.39,0.01c-0.29,0.17-0.58,0.33-0.87,0.5c1.12,0.52,2.31,0.83,3.44,1.33c1.33,0.59,2.7,1.08,4.04,1.64
			c1.29,0.54,2.56,1.15,3.87,1.66c1.4,0.55,2.87,0.99,4.29,1.5C32.08,35.42,32.54,34.78,32.74,34.85L32.74,34.85z"/>
	</g>
</g>
<g>
	<g>
		<path d="M1.32,23.67c0.15-0.22-0.01-0.33,0.09-0.55c0.13-0.28,0.6-0.64,0.83-0.87c0.6-0.62,1.2-1.25,1.82-1.85
			c0.67-0.65,1.29-1.36,2.02-1.95c0.68-0.55,1.33-1.14,1.96-1.74c1.24-1.17,2.49-2.35,3.62-3.63c0.52-0.6,1.14-1.1,1.67-1.69
			c0.49-0.55,0.97-1.28,1.57-1.71c-0.22,0.13-0.43,0.25-0.65,0.38c0.03-0.02,0.07-0.04,0.1-0.06c-0.07,0.04-0.14,0.08-0.22,0.12
			c0.03-0.01,0.06-0.02,0.09-0.03c0.29-0.17,0.58-0.33,0.87-0.5c-0.01,0-0.02,0.01-0.03,0.01c-0.31,0.1-0.56,0.4-0.87,0.5
			c0.01,0,0.02-0.01,0.03-0.01c0.31-0.1,0.56-0.4,0.87-0.5c-1.27,0.41-2.1,1.67-2.93,2.63c-0.58,0.66-1.25,1.25-1.85,1.91
			c-0.69,0.76-1.48,1.41-2.2,2.14c-1.39,1.43-3.01,2.62-4.39,4.06c-0.68,0.72-1.36,1.45-2.08,2.14c-0.32,0.31-0.63,0.62-0.94,0.94
			c-0.17,0.18-0.18,0.21-0.22,0.42c-0.03,0.16,0.09,0.14-0.05,0.33C0.63,23.92,1.15,23.92,1.32,23.67L1.32,23.67z"/>
	</g>
</g>
<g>
	<g>
		<path d="M14.2,10.11c0.32-0.04,0.64,0.04,0.95-0.03c0.13-0.03,0.25-0.08,0.38-0.11c0.14-0.04,0.29-0.05,0.43-0.1
			c0.13-0.05,0.25-0.11,0.37-0.15c0.09-0.03,0.12,0.01,0.17,0.09c0.01,0.02,0.03,0.06,0.05,0.07c0.04,0.02,0.12-0.05,0.15-0.06
			c0.18-0.1,0.35-0.2,0.53-0.3c0.05-0.03,0.2-0.08,0.22-0.15c-0.01,0.01-0.13,0.07-0.13,0.07c-0.1,0.06-0.2,0.12-0.31,0.18
			c-0.1,0.06-0.2,0.12-0.31,0.18c-0.03,0.02-0.11,0.05-0.13,0.08c0,0.01-0.01,0.01-0.01,0.02c0.29-0.17,0.58-0.33,0.87-0.5
			c-0.05,0.02-0.11-0.18-0.21-0.17c-0.1,0.01-0.23,0.1-0.32,0.13c-0.12,0.05-0.24,0.08-0.36,0.1c-0.23,0.04-0.44,0.14-0.67,0.17
			c-0.27,0.03-0.55-0.03-0.82,0.01c-0.03,0-0.11,0.06-0.13,0.07c-0.1,0.06-0.2,0.12-0.31,0.18c-0.1,0.06-0.2,0.12-0.31,0.18
			C14.29,10.05,14.23,10.1,14.2,10.11L14.2,10.11z"/>
	</g>
</g>
<g>
	<g>
		<path d="M3.08,23.41c0.29,0,0.58-0.5,0.87-0.5C3.65,22.91,3.36,23.41,3.08,23.41L3.08,23.41z"/>
	</g>
</g>
<g>
	<g>
		<path d="M1.32,24.09c0.45-0.17,0.9-0.34,1.36-0.49c0.04-0.01,0.09-0.05,0.13-0.07c0.1-0.06,0.2-0.12,0.31-0.18
			c0.1-0.06,0.2-0.12,0.31-0.18c0.04-0.02,0.08-0.06,0.13-0.08c-0.46,0.15-0.91,0.31-1.36,0.49c-0.04,0.02-0.09,0.05-0.13,0.07
			c-0.1,0.06-0.2,0.12-0.31,0.18c-0.1,0.06-0.2,0.12-0.31,0.18C1.41,24.04,1.37,24.07,1.32,24.09L1.32,24.09z"/>
	</g>
</g>
<g>
	<g>
		<path d="M4.63,22.62c-0.56,0.09-1.12,0.19-1.67,0.31c-0.27,0.06-0.53,0.13-0.8,0.18c-0.26,0.05-0.51,0.11-0.75,0.22
			c-0.15,0.07-0.29,0.16-0.44,0.25c-0.1,0.06-0.2,0.12-0.31,0.18c-0.01,0.01-0.12,0.08-0.13,0.08c0.1,0.07,0.28-0.01,0.39-0.04
			c0.26-0.07,0.53-0.14,0.79-0.22c0.47-0.14,0.94-0.29,1.41-0.42c0.22-0.06,0.44-0.1,0.67-0.12c0.03,0,0.08-0.01,0.11,0
			c0.08,0.01,0.04,0.01-0.01,0.05c-0.36,0.29,1.03-0.54,0.6-0.35c-0.06,0.03-0.12,0.05-0.18,0.07c-0.39,0.14-0.8,0.2-1.19,0.32
			c-0.24,0.07-0.47,0.15-0.71,0.23c-0.26,0.09-0.49,0.22-0.73,0.36c-0.14,0.08-0.28,0.16-0.41,0.24c-0.03,0.02-0.06,0.04-0.09,0.06
			c-0.06,0.05-0.07,0.04-0.01,0.07c0.08,0.04,0.23,0.02,0.31,0.01c0.13-0.02,0.25-0.05,0.38-0.09c0.46-0.14,0.9-0.33,1.35-0.51
			c0.21-0.09,0.41-0.18,0.61-0.29c0.16-0.09,0.32-0.18,0.48-0.28c0.02-0.01,0.34-0.18,0.34-0.22c-0.01-0.06-1.51,0.48-1.64,0.52
			c-0.29,0.09-0.58,0.19-0.87,0.28c-0.12,0.04-0.25,0.06-0.36,0.1c-0.13,0.04-0.24,0.12-0.36,0.18c-0.15,0.08-0.29,0.17-0.44,0.25
			c-0.01,0.01-0.2,0.14-0.21,0.13c0.21,0.1,0.47,0.02,0.68-0.04c0.23-0.07,0.46-0.16,0.7-0.23c0.72-0.23,1.38-0.56,2.02-0.98
			c0,0,0.01-0.01,0.01-0.01c-0.33,0.04-0.63,0.16-0.93,0.28c-0.25,0.1-0.5,0.17-0.76,0.25c-0.19,0.06-0.38,0.12-0.58,0.17
			c-0.14,0.03-0.36,0.11-0.49,0.03c-0.29,0.17-0.58,0.33-0.87,0.5c0.41-0.18,0.86-0.24,1.29-0.37c0.45-0.14,0.91-0.27,1.34-0.46
			c0.15-0.07,0.29-0.16,0.44-0.25c0.1-0.06,0.2-0.12,0.31-0.18c0.03-0.02,0.09-0.07,0.13-0.08c-0.82,0.1-1.53,0.55-2.3,0.81
			c-0.29,0.17-0.58,0.33-0.87,0.5c0.91-0.3,1.81-0.64,2.74-0.88c0.15-0.04,0.31-0.17,0.44-0.25c0.1-0.06,0.2-0.12,0.31-0.18
			c0.03-0.02,0.09-0.07,0.13-0.08C3.94,22.83,3.44,23,2.94,23.18c-0.45,0.16-0.91,0.25-1.36,0.41c-0.15,0.06-0.3,0.17-0.44,0.25
			c-0.1,0.06-0.2,0.12-0.31,0.18c-0.04,0.02-0.08,0.06-0.13,0.08c0.45-0.13,0.88-0.33,1.33-0.42c0.12-0.02,0.23-0.04,0.35-0.05
			c0.06,0,0.12,0,0.18-0.01c0.77-0.38,1-0.51,0.69-0.38c-0.03,0.01-0.05,0.02-0.08,0.03c-0.23,0.08-0.48,0.13-0.7,0.23
			c-0.3,0.14-0.56,0.36-0.87,0.5c0.26-0.12,0.54-0.16,0.8-0.27c0.37-0.15,0.72-0.39,1.07-0.6c0,0,0.01-0.01,0.01-0.01
			c-0.69,0-1.28,0.29-1.93,0.48c-0.29,0.17-0.58,0.33-0.87,0.5c0.45-0.17,0.91-0.25,1.36-0.41c0.5-0.18,1-0.35,1.52-0.46
			c0.29-0.17,0.58-0.33,0.87-0.5c-0.93,0.24-1.83,0.58-2.74,0.88c-0.15,0.05-0.3,0.17-0.44,0.25c-0.13,0.08-0.28,0.21-0.43,0.25
			c0.77-0.25,1.48-0.71,2.3-0.81c0.29-0.17,0.58-0.33,0.87-0.5c-0.43,0.19-0.89,0.33-1.34,0.46c-0.43,0.13-0.88,0.18-1.29,0.37
			c-0.15,0.07-0.29,0.16-0.44,0.25c-0.1,0.06-0.2,0.12-0.31,0.18c-0.01,0.01-0.12,0.08-0.13,0.08c0.11,0.07,0.29,0.02,0.41-0.01
			c0.19-0.04,0.37-0.1,0.56-0.15c0.18-0.06,0.37-0.1,0.55-0.16c0.28-0.09,0.54-0.21,0.82-0.3c0.13-0.04,0.26-0.06,0.4-0.08
			c0.69-0.38,0.88-0.49,0.57-0.34c-0.03,0.01-0.05,0.02-0.08,0.03c-0.06,0.03-0.12,0.05-0.18,0.07c-0.26,0.1-0.52,0.18-0.78,0.27
			c-0.34,0.11-0.82,0.37-1.18,0.21c-0.22,0.13-0.43,0.25-0.65,0.38c0.01-0.01,0.03-0.02,0.04-0.02c-0.07,0.04-0.14,0.08-0.22,0.12
			c0.22-0.1,0.48-0.14,0.71-0.22c0.24-0.08,0.49-0.15,0.73-0.23c0.26-0.08,0.51-0.19,0.76-0.28c0.12-0.04,0.23-0.08,0.35-0.12
			c0.09-0.03,0.29-0.11,0.38-0.09c0.04-0.01,0.04,0-0.01,0.03c0.66-0.35,0.86-0.47,0.62-0.36c-0.06,0.02-0.12,0.05-0.18,0.07
			c-0.1,0.04-0.2,0.08-0.3,0.13c-0.24,0.11-0.48,0.2-0.73,0.28c-0.21,0.07-0.42,0.15-0.64,0.2c-0.1,0.02-0.21,0.04-0.32,0.04
			c-0.04,0-0.11,0-0.15-0.02c-0.06,0-0.06-0.01-0.02-0.04c0.02-0.02,0.04-0.04,0.07-0.05c-0.02,0.01-0.04,0.02-0.06,0.04
			c0.08-0.05-0.83,0.45-0.67,0.39c0.02-0.01,0.04-0.02,0.07-0.02c0.04-0.01,0.08-0.03,0.12-0.04c0.13-0.05,0.27-0.1,0.4-0.14
			c0.23-0.07,0.47-0.14,0.71-0.2c0.39-0.09,0.79-0.17,1.15-0.37c0.31-0.17,0.62-0.33,0.91-0.53c0,0,0.11-0.07,0.11-0.08
			c0-0.01-0.14,0-0.16,0c-0.12,0.01-0.24,0.02-0.36,0.05c-0.49,0.09-0.96,0.27-1.44,0.41c-0.31,0.09-0.61,0.18-0.92,0.26
			c-0.13,0.04-0.42,0.17-0.54,0.08c-0.29,0.17-0.58,0.33-0.87,0.5c0.24-0.11,0.49-0.16,0.75-0.22c0.27-0.06,0.54-0.12,0.8-0.18
			c0.55-0.12,1.11-0.23,1.67-0.31c0.03-0.01,0.11-0.06,0.13-0.07c0.1-0.06,0.2-0.12,0.31-0.18c0.1-0.06,0.2-0.12,0.31-0.18
			C4.54,22.67,4.6,22.62,4.63,22.62L4.63,22.62z"/>
	</g>
</g>
<g>
	<g>
		<path d="M41.63,19.83c-0.89,1.22-1.69,2.5-2.61,3.69c-0.9,1.17-1.79,2.33-2.64,3.54c-0.84,1.2-1.69,2.4-2.53,3.6
			c-0.42,0.61-0.86,1.21-1.29,1.82c-0.33,0.48-0.59,1.07-0.97,1.5c0.21-0.23,0.65-0.26,0.87-0.5c0.36-0.41,0.61-0.96,0.91-1.41
			c0.42-0.61,0.86-1.21,1.28-1.81c0.86-1.24,1.73-2.46,2.6-3.7c0.82-1.18,1.68-2.31,2.56-3.45c0.95-1.22,1.77-2.54,2.69-3.79
			C42.32,19.58,41.81,19.59,41.63,19.83L41.63,19.83z"/>
	</g>
</g>
<g>
	<g>
		<path d="M41.77,19.18c-1.9,2.09-3.51,4.45-5.2,6.71c-1.69,2.25-3.17,4.61-4.62,7.02c0.15-0.25,0.71-0.25,0.87-0.5
			c1.45-2.41,2.93-4.76,4.62-7.02c1.69-2.26,3.3-4.62,5.2-6.71C42.43,18.92,41.99,18.95,41.77,19.18L41.77,19.18z"/>
	</g>
</g>
<g>
	<g>
		<path d="M42.42,20.63c-1.78,2.04-3.31,4.29-5.07,6.35c-0.87,1.01-1.75,2-2.59,3.04c-0.86,1.07-1.6,2.24-2.53,3.25
			c0.21-0.23,0.65-0.26,0.87-0.5c0.9-0.98,1.63-2.12,2.45-3.16c0.85-1.07,1.77-2.09,2.66-3.13c1.76-2.06,3.29-4.3,5.07-6.35
			C43.08,20.36,42.63,20.39,42.42,20.63L42.42,20.63z"/>
	</g>
</g>
<g>
	<g>
		<path d="M42.42,20.99c-2.55,4.41-6.1,8.11-9.17,12.13c0.19-0.24,0.68-0.25,0.87-0.5c3.08-4.03,6.63-7.73,9.17-12.13
			C43.15,20.74,42.57,20.74,42.42,20.99L42.42,20.99z"/>
	</g>
</g>
<g>
	<g>
		<path d="M14.16,10.6c-0.31,0.58-0.79,1.04-1.2,1.54c-0.46,0.56-1.01,1.09-1.52,1.61c-1.02,1.05-2.1,2.02-3.13,3.06
			c-1.13,1.15-2.29,2.26-3.42,3.41c-1.04,1.05-2.12,2.04-2.99,3.23c0.18-0.24,0.69-0.25,0.87-0.5c0.86-1.2,1.95-2.18,2.99-3.23
			c1.13-1.15,2.29-2.27,3.42-3.41c1.03-1.04,2.1-2.02,3.13-3.06c0.48-0.49,0.99-1,1.45-1.52c0.45-0.52,0.95-1.02,1.27-1.63
			C14.89,10.34,14.29,10.34,14.16,10.6L14.16,10.6z"/>
	</g>
</g>
<g>
	<g>
		<path d="M14.85,10.6c-0.84,1.18-1.81,2.23-2.84,3.24c-1.06,1.04-2.28,1.9-3.29,2.98c-0.49,0.53-1.04,1-1.52,1.54
			c-0.47,0.53-0.92,1.06-1.39,1.58c-0.51,0.57-0.96,1.16-1.42,1.77c-0.35,0.46-0.89,0.96-1.1,1.51c0.09-0.24,0.77-0.25,0.87-0.5
			c0.19-0.52,0.7-0.99,1.03-1.42c0.46-0.6,0.9-1.2,1.41-1.77c0.47-0.52,0.92-1.05,1.39-1.58c0.51-0.57,1.08-1.07,1.6-1.63
			c0.99-1.05,2.19-1.89,3.22-2.91c1.05-1.04,2.05-2.11,2.91-3.31C15.55,10.34,15.03,10.35,14.85,10.6L14.85,10.6z"/>
	</g>
</g>
<g>
	<g>
		<path d="M3.77,23.59c2.21,0.57,4.4,1.24,6.61,1.77c1,0.24,1.92,0.59,2.86,0.98c0.96,0.4,1.77,1.05,2.7,1.49
			c0.18,0.08,0.7-0.58,0.87-0.5c-0.94-0.44-1.74-1.09-2.7-1.49c-0.94-0.39-1.87-0.74-2.86-0.98c-2.21-0.53-4.4-1.2-6.61-1.77
			C4.4,23.03,3.99,23.65,3.77,23.59L3.77,23.59z"/>
	</g>
</g>
<g>
	<g>
		<path d="M2.06,23.87c1.2,0.44,2.38,0.92,3.62,1.26c1.16,0.32,2.32,0.63,3.47,0.99c1.16,0.36,2.34,0.67,3.5,1.04
			c1.19,0.38,2.34,0.86,3.51,1.3c0.2,0.08,0.67-0.57,0.87-0.5c-1.17-0.44-2.32-0.92-3.51-1.3c-1.16-0.37-2.34-0.68-3.5-1.04
			c-1.15-0.35-2.31-0.67-3.47-0.99c-1.23-0.34-2.42-0.81-3.62-1.26C2.72,23.29,2.25,23.94,2.06,23.87L2.06,23.87z"/>
	</g>
</g>
<g>
	<g>
		<path d="M16.9,28.25c1.23,0.21,2.45,0.47,3.64,0.88c1.17,0.4,2.28,0.93,3.43,1.37c2.09,0.79,4.13,1.67,5.72,3.29
			c0.06,0.06,0.81-0.55,0.87-0.5c-1.59-1.62-3.63-2.5-5.72-3.29c-1.15-0.44-2.27-0.97-3.43-1.37c-1.18-0.41-2.41-0.66-3.64-0.88
			C17.51,27.7,17.15,28.29,16.9,28.25L16.9,28.25z"/>
	</g>
</g>
<g>
	<g>
		<path d="M17.32,29.34c1.94,0.3,3.77,0.99,5.58,1.73c1.8,0.74,3.58,1.53,5.3,2.45c0.16,0.09,0.72-0.58,0.87-0.5
			c-1.72-0.92-3.5-1.71-5.3-2.45c-1.81-0.74-3.64-1.43-5.58-1.73C17.92,28.8,17.57,29.38,17.32,29.34L17.32,29.34z"/>
	</g>
</g>
</svg>
